<?xml version="1.0" encoding="utf-8"?>
<!-- Generator: Adobe Illustrator 19.2.1, SVG Export Plug-In . SVG Version: 6.00 Build 0)  -->
<svg version="1.1" id="Layer_1" xmlns="http://www.w3.org/2000/svg" xmlns:xlink="http://www.w3.org/1999/xlink" x="0px" y="0px"
	 viewBox="0 0 246.3 50.3" style="enable-background:new 0 0 246.3 50.3;" xml:space="preserve">
<style type="text/css">
	.st0{fill:#FFFFFF;}
</style>
<g>
	<path class="st0" d="M99.6,23.9h2v0.8H90.2v-0.8h2V8.3h-0.1l-5.6,16.4h-1L79.8,8.1h-0.1v13.4c0,1.1,0.1,2.4,1.7,2.4H82v0.8h-5.2
		v-0.8h0.5c1.4,0,1.6-1.4,1.6-2.3V6.1H77V5.3h9.1l3.1,9.2l3.2-9.2h9.2v0.8h-2V23.9z"/>
	<path class="st0" d="M108.1,19v1.2c0,2.2,0.4,4,2.7,4c1.9,0,3.5-1.3,4.6-2.9l0.5,0.4c-1.5,2.4-3.6,3.5-6.3,3.5
		c-1.5,0-2.8-0.1-4.1-0.8c-2.1-1-3.7-3-3.7-6.2c0-4.5,3.3-7,7.1-7c4.3,0,7.4,2.9,7.3,7.9H108.1z M110.3,18.3v-3.8
		c0-1,0.2-2.7-1.1-2.7c-1.2,0-1,1.8-1,2.7v3.8H110.3z"/>
	<path class="st0" d="M117,12.1v-0.7c2.3,0,4.6-0.3,6.9-0.3V14c1.1-1.6,2.5-2.9,4.4-2.9c1.6,0,3.2,0.9,3.5,2.8
		c0.9-1.5,2.7-2.8,4.3-2.8c2.9,0,3.9,1.6,3.9,5.6V24h1.4v0.7h-8V24h0.8v-8.2c0-0.8,0.2-2.6-0.8-2.6c-0.8,0-1.3,1.4-1.3,2.7V24h0.8
		v0.7h-7.3V24h0.8v-8.3c0-1.4,0.1-2.5-0.8-2.5c-0.8,0-1.3,1.3-1.3,2.5V24h0.7v0.7H117V24h1.4V12.1H117z"/>
	<path class="st0" d="M154.7,12.7c1.5,1.1,2.5,3.2,2.5,5.2c0,2.1-0.8,4-2.3,5.4c-1.4,1.3-3.5,1.8-5.5,1.8c-2,0-4.1-0.4-5.5-1.8
		c-1.4-1.3-2.3-3.3-2.3-5.4c0-2,1-4.1,2.5-5.2c1.4-1.1,3.4-1.6,5.3-1.6C151.3,11.1,153.3,11.6,154.7,12.7z M148.2,22.2
		c0,1.1,0,2.2,1.3,2.2c1.4,0,1.2-1.1,1.2-2.2v-8.4c0-1,0-2.1-1.2-2.1c-1.2,0-1.3,1.1-1.3,2.1V22.2z"/>
	<path class="st0" d="M158.2,12.1v-0.7c2.4,0,4.8-0.3,7.3-0.3V14h0.1c0.8-1.7,2.3-2.8,4-2.8c1.7,0,3.2,1.1,3.2,3.1
		c0,1.9-1.2,3.3-2.9,3.3c-1.7,0-2.8-1.2-2.8-3.1c0-0.4,0-0.9,0.2-1.3c-0.4-0.7-1.1,0.9-1.2,1.2c-0.4,1.1-0.3,2.1-0.3,3.2V24h1.8v0.7
		h-9.3V24h1.3V12.1H158.2z"/>
	<path class="st0" d="M173.5,24.7V24h1.4V12.1h-1.3v-0.7c2.5,0,5-0.3,7.5-0.3V24h1.3v0.7H173.5z M181.2,7.4c0,2.1-1.8,2.7-3.4,2.7
		c-1.6,0-3.4-0.7-3.4-2.7c0-2.2,1.7-2.8,3.4-2.8C179.5,4.6,181.2,5.2,181.2,7.4z"/>
	<path class="st0" d="M191.9,13.5c0-1.3-0.3-1.7-1.4-1.7c-0.5,0-1,0.1-1,0.3c0,0.4,0.9,0.7,0.9,2c0,1.9-2,2.2-3.3,2.2
		c-1.2,0-2.8-0.6-2.8-2.2c0-1.2,0.6-3,6.3-3c1.3,0,3.3,0.2,4.5,0.5c1.7,0.4,2.7,1.2,2.7,3.3v7.5c0,0.3,0.1,0.7,0.4,0.7
		c0.5,0,0.7-0.4,1-0.7v1c-1,1.2-2.5,1.8-3.9,1.8c-1.4,0-2.6-0.4-3.2-1.9c-1.3,1.5-3.1,1.9-4.9,1.9c-1.9,0-3.9-0.9-3.9-3.4
		c0-1.8,0.9-3.7,4.4-4.3c1.1-0.2,1.8-0.2,3-0.2h1.2V13.5z M191.9,17.9H191c-1.6,0-1.4,2-1.4,3.3c0,0.8,0,2.3,1,2.3
		c1.4,0,1.3-1.8,1.3-2.8V17.9z"/>
	<path class="st0" d="M199.9,24.7V24h1.4V6h-1.5V5.3c2.5,0,5-0.3,7.5-0.4V24h1.4v0.7H199.9z"/>
	<path class="st0" d="M77,42.9v-0.7h1.5V28.4H77v-0.7h6.8v0.7h-1.7v6.4h4.6v-6.4H85v-0.7h7v0.7h-1.7v13.9H92v0.7h-7v-0.7h1.7v-6.8
		h-4.6v6.8h1.7v0.7H77z"/>
	<path class="st0" d="M95.3,37.5v-2.1c0-0.6,0.4-1,1.3-1c1,0,1.5,0.4,1.5,1v2.2H95.3z M99.9,38.1c0.3,0,1,0.1,1-0.4
		c0-2.4-2-3.9-4.1-3.9c-2.4,0-4.9,1.7-4.9,4.8c0,3.1,2.4,4.7,5,4.7c2,0,3.5-1,4.1-3.1l-0.5-0.2c-0.5,1.8-1.8,2.7-3.5,2.7
		c-1.1,0-1.7-0.4-1.7-1.6v-2.9H99.9z"/>
	<path class="st0" d="M107.6,40.7c0,0.6-0.5,1.3-1.5,1.3c-0.8,0-1.2-1-1.2-1.8c0-1.6,1.5-1.8,2.7-1.8V40.7z M107.6,37.8
		c-1.9,0-5.4,0.7-5.4,3.4c0,1.4,1.3,2.1,2.5,2.1c1.1,0,2.2-0.6,2.9-1.6c0.2,0.7,1,1.6,1.9,1.6c1,0,1.6-0.3,2.2-1.3l-0.4-0.4
		c-0.1,0.2-0.4,0.3-0.5,0.3c-0.6,0-0.6-0.6-0.6-1v-5.5c0-0.7-1.2-1.5-3.9-1.5c-1.3,0-3.6,0.6-3.6,2.4c0,0.8,0.6,1.4,1.3,1.4
		c0.9,0,1.3-0.6,1.3-1.6c0-0.2-0.1-0.4-0.2-0.6c-0.1-0.2-0.2-0.4-0.2-0.5c0-0.4,0.9-0.5,1.1-0.5c1.6,0,1.5,0.7,1.5,1.9V37.8z"/>
	<path class="st0" d="M112.9,28.2h-1.5v-0.6h1.5c1,0,1.9-0.2,2.9-0.2v15h1.4v0.6h-5.5v-0.6h1.3V28.2z"/>
	<path class="st0" d="M118.7,31.4h1.2c0.5,0,1.1-0.2,1.7-0.2v2.9h1.6v0.6h-1.6v6.2c0,0.5-0.1,1.2,0.5,1.2c0.8,0,1-0.7,1.1-1.4
		l0.6,0.1c-0.4,1.8-1.5,2.5-3.2,2.5c-2,0-2-0.9-2-2.1v-6.5h-1.3v-0.6h1.3V31.4z"/>
	<path class="st0" d="M135.4,42.3v0.6h-5.3v-0.6h1.1v-6.8c0-0.5-0.5-0.8-0.9-0.8c-0.9,0-2.1,1.5-2.1,3.4v4.2h1.2v0.6H124v-0.6h1.2
		V28.2h-1.3v-0.6h1.3c1,0,1.9-0.2,2.9-0.2v8.8h0c0.8-1.5,1.8-2.4,3.5-2.4c1.8,0,2.5,0.9,2.5,2.8v5.8H135.4z"/>
	<path class="st0" d="M144,40.3c-0.6,1.8-2,2.9-3.7,2.9c-2.3,0-4.7-2-4.7-4.7c0-2.8,2.3-4.9,4.8-4.9c2.3,0,3.3,1.6,3.3,2.5
		c0,1-0.6,1.6-1.5,1.6c-0.8,0-1.4-0.7-1.4-1.6c0-0.3,0.2-0.8,0.4-0.9c0.1-0.1,0.3-0.3,0.3-0.5c0-0.5-0.8-0.5-1.1-0.5
		c-0.9,0-1.6,0.3-1.6,2.4v2.9c0,2.4,0.3,2.9,1.6,2.9c1.6,0,2.5-1,3.1-2.6L144,40.3z"/>
	<path class="st0" d="M150.4,40.7c0,0.6-0.5,1.3-1.5,1.3c-0.8,0-1.2-1-1.2-1.8c0-1.6,1.5-1.8,2.7-1.8V40.7z M150.4,37.8
		c-1.9,0-5.4,0.7-5.4,3.4c0,1.4,1.3,2.1,2.5,2.1c1.1,0,2.2-0.6,3-1.6c0.2,0.7,1,1.6,1.9,1.6c1,0,1.6-0.3,2.2-1.3l-0.4-0.4
		c-0.1,0.2-0.4,0.3-0.5,0.3c-0.6,0-0.6-0.6-0.6-1v-5.5c0-0.7-1.2-1.5-3.9-1.5c-1.3,0-3.6,0.6-3.6,2.4c0,0.8,0.6,1.4,1.3,1.4
		c0.9,0,1.3-0.6,1.3-1.6c0-0.2-0.1-0.4-0.2-0.6c-0.1-0.2-0.2-0.4-0.2-0.5c0-0.4,0.9-0.5,1.1-0.5c1.6,0,1.5,0.7,1.5,1.9V37.8z"/>
	<path class="st0" d="M158.9,36.2L158.9,36.2c0.4-1.3,1.2-2.4,2.6-2.4c1.1,0,1.7,0.7,1.7,1.9c0,0.9-0.7,1.6-1.5,1.6
		c-0.7,0-1.3-0.5-1.3-1.4c0-0.4,0.1-0.6,0.3-1c0.1-0.2-0.5-0.4-1.3,1.2c-0.4,0.8-0.5,1.2-0.5,2.1v4.1h1.6v0.6H155v-0.6h1.1v-7.8
		h-1.1v-0.6h1.1c1,0,1.9-0.1,2.9-0.1V36.2z"/>
	<path class="st0" d="M167.5,37.5v-2.1c0-0.6,0.4-1,1.3-1c1,0,1.5,0.4,1.5,1v2.2H167.5z M172.1,38.1c0.3,0,1,0.1,1-0.4
		c0-2.4-2-3.9-4.1-3.9c-2.4,0-4.9,1.7-4.9,4.8c0,3.1,2.4,4.7,5,4.7c2,0,3.5-1,4.1-3.1l-0.5-0.2c-0.5,1.8-1.8,2.7-3.5,2.7
		c-1.1,0-1.7-0.4-1.7-1.6v-2.9H172.1z"/>
	<path class="st0" d="M188.8,27.7h0.7v4h-0.7c-0.3-1.9-1.8-3.7-3.6-3.7c-1.2,0-2.8,0.7-2.8,2.2c0,1.3,0.9,1.7,1.9,2
		c1.1,0.3,2.8,0.7,3.8,1.2c1.3,0.6,2.3,1.8,2.3,4.5c0,2.7-1.5,5.4-4.9,5.4c-1.1,0-2-0.3-2.9-1.1l-1.1,0.9h-0.8v-4.4h0.8
		c0.6,2.1,2,4,4.1,4c2.3,0,3.4-1.6,3.4-3.1c0-2-2-2.1-4.1-2.7c-2-0.6-4.1-1.5-4.1-4.9c0-2.6,2-4.6,4.4-4.6c1,0,2,0.4,2.8,1
		L188.8,27.7z"/>
	<path class="st0" d="M190.8,33.9h5.1v0.6h-1l2,4.9h0.1l1.6-4.2c0.2-0.5-0.2-0.7-0.5-0.7h-0.8v-0.6h3.3v0.6H200
		c-0.4,0-0.6,0.7-0.8,1.1L195,46.2c-0.4,1.1-1.1,1.8-2.1,1.8c-0.7,0-1.3-0.7-1.3-1.4c0-0.8,0.5-1.4,1.2-1.4c0.5,0,0.7,0.2,0.9,0.4
		c0.2,0.2,0.3,0.4,0.5,0.3c0.4-0.2,0.5-0.6,0.7-1l0.8-1.9l-3.9-8.4h-0.9V33.9z"/>
	<path class="st0" d="M202,42.9h-0.5v-3.2h0.5c0.3,1.6,1.5,3,3.1,3c0.7,0,2-0.5,2-1.6c0-1.2-1-1.1-1.8-1.2c-1.9-0.2-3.9-0.6-3.9-3.2
		c0-1.9,1.3-3.1,3-3.1c0.8,0,1.2,0.3,1.9,0.5c0.2,0,0.5-0.3,0.6-0.5h0.4v2.6h-0.6c-0.4-1.4-1-2-2.4-2c-0.7,0-1.9,0.3-1.9,1.2
		c0,0.5,0.8,0.9,1.7,1c2.4,0.2,4,0.8,4,3.2c0,1.8-1,3.6-3.1,3.6c-0.9,0-1.8-0.3-2.5-0.8L202,42.9z"/>
	<path class="st0" d="M210.2,31.4h1.2c0.5,0,1.1-0.2,1.7-0.2v2.9h1.6v0.6h-1.6v6.2c0,0.5-0.1,1.2,0.5,1.2c0.8,0,1-0.7,1.1-1.4
		l0.6,0.1c-0.4,1.8-1.5,2.5-3.2,2.5c-2,0-2-0.9-2-2.1v-6.5h-1.3v-0.6h1.3V31.4z"/>
	<path class="st0" d="M219.4,37.5v-2.1c0-0.6,0.4-1,1.3-1c1,0,1.5,0.4,1.5,1v2.2H219.4z M224,38.1c0.3,0,1,0.1,1-0.4
		c0-2.4-2-3.9-4.1-3.9c-2.4,0-4.9,1.7-4.9,4.8c0,3.1,2.4,4.7,5,4.7c2,0,3.5-1,4.1-3.1l-0.5-0.2c-0.5,1.8-1.8,2.7-3.5,2.7
		c-1.1,0-1.7-0.4-1.7-1.6v-2.9H224z"/>
	<path class="st0" d="M229.8,36c0.7-1.2,1.7-2.2,3.1-2.2c1.3,0,2.4,0.7,2.6,2.1c0.8-1.2,2-2.1,3.4-2.1c1.1,0,2.4,0.5,2.4,1.8v6.7
		h1.4v0.6h-5.3v-0.6h1.1V36c0-0.6-0.1-1.3-0.8-1.3c-1.2,0-2.1,1.7-2.1,2.9v4.7h1.1v0.6h-5v-0.6h1.1v-5.7c0-1.5-0.1-1.9-0.9-1.9
		c-0.7,0-2,1-2,3v4.6h1.1v0.6h-5.1v-0.6h1.2v-7.8h-1.3v-0.6h1.3c0.9,0,1.9-0.1,2.8-0.1V36z"/>
	<path class="st0" d="M63.3,10.6V7.6h3.8v-2H47.5l-2.1,5.1H34.9L33,5.6H13v2h3.8v3.1h-9v1h9v3.4l-9,0v1l9,0v3.1h-9v1h9v3.4h-9v1h9
		V28h-9v1h9v3.5h-9v1h9v3.5h-9v1h9v0c0,0.6-0.1,1.1-0.2,1.4c-0.1,0.3-0.2,0.5-0.4,0.6c-0.1,0.1-0.3,0.2-0.4,0.3
		c-0.3,0.1-0.6,0.2-1,0.3c-0.4,0.1-0.9,0.1-1.5,0.1h-0.5v2h10.6v-2h-0.5c-0.7,0-1.2,0-1.7-0.1c-0.3-0.1-0.6-0.2-0.8-0.3
		c-0.2-0.1-0.3-0.2-0.4-0.3c-0.2-0.2-0.3-0.4-0.4-0.7c-0.1-0.3-0.1-0.7-0.1-1.2v0h10.6l1.9,4.8H35l1.9-4.8h10.7v2.7h-3.8v2h23.2v-2
		h-3.8v-2.7H73v-1h-9.8v-3.5H73v-1h-9.8v-3.5H73v-1h-9.8v-3.4H73v-1h-9.8v-3.4H73v-1h-9.8v-3.1H73v-1h-9.8v-3.4H73v-1H63.3z
		 M39.9,23.6h-0.1l-1.3-3.4h2.8L39.9,23.6z M19.3,15.1v-3.2l1.3,3.2H19.3z M21,16.1l1.2,3.1h-2.9v-3.1H21z M22.7,20.2l1.4,3.4h-4.7
		v-3.4H22.7z M24.5,24.6l1.4,3.4h-6.5v-3.4H24.5z M40.9,28l1.4-3.4h5.3V28H40.9z M42.7,23.6l1.4-3.4h3.5v3.4H42.7z M44.5,19.2
		l1.2-3.1h1.9v3.1H44.5z M46.2,15.1l1.4-3.4h0.1v3.4H46.2z M41.7,19.2h-3.7l-1.2-3.1H43L41.7,19.2z M19.3,29.1h6.9l1.4,3.5h-8.4
		V29.1z M40.5,29.1h7.1v3.5h-8.5L40.5,29.1z M43.5,15.1h-6.9l-1.3-3.4h9.6L43.5,15.1z M19.3,33.6h8.8l1.4,3.5H19.3V33.6z M38.7,33.6
		h8.9v3.5H37.3L38.7,33.6z"/>
</g>
</svg>
